<svg xmlns="http://www.w3.org/2000/svg" xmlns:xlink="http://www.w3.org/1999/xlink" width="360" zoomAndPan="magnify" viewBox="0 0 270 149.999998" height="200" preserveAspectRatio="xMidYMid meet" version="1.0"><defs><g/></defs><path fill="#ffffff" d="M 84.273438 143.105469 C 83.949219 142.867188 83.335938 142.144531 82.882812 141.457031 C 82.359375 140.660156 81.832031 140.054688 81.382812 139.730469 C 80.582031 139.15625 80.394531 138.679688 80.417969 137.253906 C 80.433594 136.1875 80.113281 135.378906 79.585938 135.140625 C 79.328125 135.023438 78.816406 135.023438 77.652344 135.136719 C 76 135.304688 74.507812 135.230469 73.78125 134.949219 C 73.546875 134.859375 72.839844 134.394531 72.214844 133.917969 C 70.832031 132.871094 70.042969 132.519531 68.371094 132.203125 C 66.613281 131.871094 65.152344 131.980469 62.679688 132.628906 C 61.355469 132.972656 60.140625 133.1875 59.035156 133.273438 C 58.125 133.339844 57.160156 133.488281 56.894531 133.601562 C 56.628906 133.714844 55.738281 134.347656 54.914062 135.011719 C 51.816406 137.507812 50.160156 138.542969 49.273438 138.542969 C 48.566406 138.542969 48.027344 138.273438 46.59375 137.199219 C 45.019531 136.019531 44.730469 135.867188 43.5625 135.625 C 42.875 135.480469 42.433594 135.464844 41.867188 135.570312 C 40.859375 135.757812 40.242188 135.480469 38.828125 134.203125 C 38.046875 133.503906 37.363281 133.054688 36.289062 132.539062 C 35.175781 132.007812 34.566406 131.601562 33.765625 130.859375 C 33.152344 130.289062 32.53125 129.84375 32.277344 129.789062 C 31.640625 129.648438 31.074219 129.105469 30.789062 128.367188 C 30.519531 127.65625 30.25 127.464844 29 127.105469 C 28.292969 126.902344 27.292969 126.183594 27.292969 125.875 C 27.292969 125.816406 27.429688 125.460938 27.59375 125.089844 C 27.972656 124.234375 27.839844 123.898438 26.910156 123.308594 C 26 122.730469 25.53125 122.757812 24.492188 123.457031 C 23.394531 124.191406 22.871094 124.226562 21.988281 123.617188 C 21.148438 123.039062 20.519531 122.269531 20.222656 121.460938 C 19.902344 120.589844 19.609375 120.3125 18.582031 119.894531 C 17.785156 119.570312 17.667969 119.46875 17.363281 118.824219 C 17.179688 118.433594 16.976562 118.015625 16.917969 117.898438 C 16.855469 117.78125 16.449219 117.492188 16.007812 117.257812 C 15.460938 116.960938 14.6875 116.277344 13.5625 115.097656 C 11.617188 113.054688 10.929688 112.632812 9.558594 112.632812 C 8.882812 112.632812 8.574219 112.558594 8.199219 112.308594 C 7.425781 111.785156 6.851562 110.675781 6.585938 109.171875 C 6.296875 107.542969 6.148438 107.164062 5.726562 106.9375 C 5.46875 106.800781 5.28125 106.796875 4.929688 106.917969 C 4.175781 107.183594 3.710938 107.117188 3.386719 106.707031 C 3.121094 106.367188 3.101562 106.207031 3.179688 104.890625 C 3.253906 103.691406 3.203125 103.078125 2.878906 101.242188 C 1.847656 95.351562 1.742188 93.921875 2.214844 92.269531 C 2.636719 90.792969 3.675781 89.003906 5.683594 86.277344 C 7.152344 84.285156 8.183594 82.65625 9.003906 81.023438 C 10.589844 77.871094 11.207031 77.148438 12.121094 77.378906 C 12.382812 77.445312 12.515625 77.613281 12.625 78.015625 C 12.75 78.488281 12.710938 78.765625 12.332031 79.972656 C 11.832031 81.585938 11.828125 82.433594 12.324219 83.101562 C 12.5 83.339844 12.699219 83.914062 12.78125 84.429688 C 13.035156 86.019531 13.378906 86.414062 14.960938 86.9375 L 16.128906 87.328125 L 16.765625 87.023438 C 17.113281 86.855469 17.742188 86.523438 18.160156 86.289062 C 19.050781 85.792969 19.960938 85.730469 21.15625 86.085938 C 21.582031 86.214844 22.085938 86.269531 22.320312 86.21875 C 22.832031 86.105469 23.515625 85.457031 24.117188 84.511719 C 24.851562 83.359375 26.292969 79.34375 26.671875 77.398438 C 26.839844 76.53125 26.945312 76.328125 27.515625 75.746094 C 27.945312 75.3125 28.574219 74.328125 29.332031 72.90625 C 30.019531 71.625 30.65625 70.609375 30.886719 70.4375 C 31.242188 70.175781 31.339844 70.164062 31.957031 70.320312 C 32.328125 70.417969 32.960938 70.511719 33.367188 70.527344 C 34.371094 70.570312 34.621094 70.3125 34.921875 68.941406 C 35.210938 67.628906 35.40625 67.21875 35.96875 66.742188 C 36.433594 66.351562 37.988281 65.929688 38.96875 65.929688 C 39.628906 65.929688 40.1875 65.6875 40.605469 65.210938 C 41.0625 64.699219 42.121094 64.082031 42.546875 64.082031 C 43.183594 64.082031 43.535156 64.277344 44.953125 65.4375 C 46.609375 66.796875 47.269531 67.109375 48.507812 67.121094 C 49.238281 67.128906 49.570312 67.054688 50.074219 66.777344 C 50.972656 66.28125 51.078125 65.890625 50.597656 64.820312 C 50.386719 64.355469 50.214844 63.859375 50.214844 63.71875 C 50.214844 63.578125 50.417969 63.105469 50.664062 62.671875 C 51.011719 62.054688 51.140625 61.609375 51.238281 60.664062 C 51.414062 59 51.90625 58.007812 52.78125 57.558594 C 53.386719 57.242188 53.515625 57.230469 55.292969 57.320312 C 57.78125 57.449219 58.464844 57.261719 59.632812 56.148438 C 60.089844 55.714844 60.734375 54.996094 61.066406 54.558594 C 61.398438 54.117188 61.9375 53.4375 62.261719 53.046875 C 63.261719 51.839844 63.394531 51.367188 62.875 50.898438 C 62.390625 50.460938 62.21875 49.980469 62.140625 48.867188 C 62.082031 47.976562 62.011719 47.765625 61.691406 47.445312 C 61.351562 47.101562 61.210938 47.066406 60.214844 47.0625 C 58.398438 47.054688 58 46.601562 57.964844 44.503906 C 57.933594 42.574219 57.949219 42.632812 57.402344 42.292969 C 56.785156 41.910156 56.480469 41.351562 56.480469 40.589844 C 56.480469 39.839844 56.726562 39.378906 57.515625 38.640625 C 57.980469 38.207031 58.195312 37.867188 58.320312 37.375 C 58.421875 36.96875 58.65625 36.546875 58.910156 36.308594 C 59.140625 36.09375 59.328125 35.769531 59.328125 35.589844 C 59.328125 35.117188 58.714844 34.308594 58.046875 33.894531 C 57.320312 33.449219 56.839844 32.535156 56.96875 31.839844 C 57.175781 30.730469 57.910156 30.269531 60.484375 29.628906 C 63.179688 28.957031 63.652344 28.726562 64.890625 27.492188 C 66.496094 25.898438 67.15625 24.535156 67.230469 22.679688 C 67.28125 21.421875 67.496094 20.851562 68.027344 20.578125 C 68.886719 20.132812 69.3125 20.324219 71.152344 21.996094 C 71.914062 22.683594 72.757812 23.316406 73.097656 23.449219 C 73.699219 23.679688 73.699219 23.679688 74.371094 23.234375 C 75.570312 22.441406 75.851562 22.402344 80.054688 22.507812 C 81.691406 22.546875 82.304688 22.355469 83.371094 21.457031 C 83.710938 21.171875 84.128906 20.910156 84.296875 20.871094 C 84.464844 20.835938 85.140625 20.710938 85.796875 20.59375 C 87.210938 20.339844 87.707031 20.039062 88.613281 18.894531 C 89.390625 17.914062 90.371094 17.238281 91.023438 17.238281 C 91.582031 17.238281 92.167969 17.699219 92.941406 18.75 C 93.753906 19.847656 94.425781 20.1875 95.984375 20.289062 C 96.800781 20.339844 97.4375 20.464844 97.761719 20.632812 C 98.375 20.949219 98.847656 21.734375 99.058594 22.789062 C 99.144531 23.222656 99.355469 24.011719 99.523438 24.546875 C 99.828125 25.515625 99.828125 25.515625 99.546875 26.035156 C 99.320312 26.453125 98.976562 26.707031 97.769531 27.34375 C 96 28.277344 95.726562 28.636719 95.871094 29.859375 C 95.949219 30.523438 95.917969 30.636719 95.589844 30.964844 C 95.242188 31.3125 95.144531 31.332031 93.738281 31.332031 C 92.191406 31.332031 91.496094 31.503906 91.050781 32 C 90.921875 32.140625 90.585938 32.894531 90.304688 33.667969 C 89.691406 35.367188 89.460938 35.75 88.511719 36.671875 C 87.691406 37.472656 87.328125 38.089844 87.078125 39.109375 C 86.691406 40.6875 86.183594 41.230469 84.679688 41.667969 C 83.191406 42.101562 82.425781 43.320312 82.574219 45.011719 C 82.714844 46.554688 83.609375 47.695312 84.769531 47.804688 C 86.304688 47.945312 86.550781 48.152344 86.878906 49.597656 C 87.222656 51.117188 87.542969 51.597656 88.539062 52.097656 C 89.125 52.394531 89.601562 53.089844 89.730469 53.839844 C 89.8125 54.332031 89.742188 54.582031 89.257812 55.582031 C 88.945312 56.222656 88.367188 57.128906 87.96875 57.589844 C 86.875 58.863281 86.738281 59.226562 86.738281 60.804688 C 86.738281 61.847656 86.808594 62.339844 87.039062 62.941406 C 87.207031 63.371094 87.390625 64.140625 87.449219 64.648438 C 87.609375 66.066406 87.996094 66.945312 88.785156 67.679688 C 89.160156 68.035156 89.65625 68.417969 89.886719 68.539062 C 90.53125 68.871094 91.628906 70.128906 92.015625 70.972656 C 92.207031 71.390625 92.484375 72.289062 92.628906 72.972656 C 92.773438 73.652344 92.992188 74.3125 93.113281 74.433594 C 93.265625 74.585938 93.757812 74.695312 94.59375 74.761719 C 96.449219 74.917969 96.949219 75.191406 98.171875 76.730469 C 98.558594 77.21875 98.726562 77.320312 99.128906 77.320312 C 100.027344 77.320312 101.089844 76.710938 102.214844 75.550781 C 103.394531 74.332031 103.921875 74.117188 104.71875 74.53125 C 105.34375 74.851562 105.566406 74.820312 106.140625 74.316406 C 106.578125 73.929688 106.71875 73.882812 107.226562 73.953125 C 107.671875 74.011719 107.902344 74.148438 108.214844 74.539062 C 108.832031 75.3125 109.058594 75.386719 109.722656 75.046875 C 110.035156 74.890625 110.507812 74.757812 110.773438 74.757812 C 111.53125 74.757812 111.917969 75.171875 112.355469 76.46875 C 112.570312 77.101562 113.183594 78.53125 113.710938 79.640625 C 114.242188 80.753906 114.824219 82.113281 115 82.660156 C 115.441406 84.023438 115.933594 84.964844 116.589844 85.710938 C 117.195312 86.398438 117.355469 86.816406 117.21875 87.355469 C 117.082031 87.90625 116.648438 88.0625 115.792969 87.875 C 115.195312 87.742188 114.785156 87.761719 113.4375 87.992188 C 111.230469 88.367188 109.683594 89.121094 108.050781 90.625 C 106.035156 92.480469 104.859375 93.28125 101.757812 94.910156 C 100.542969 95.546875 98.6875 96.613281 97.628906 97.28125 C 93.527344 99.875 90.625 101.414062 87.699219 102.546875 C 85.246094 103.5 83.976562 104.53125 82.808594 106.535156 C 81.425781 108.894531 80.769531 111.382812 80.859375 113.914062 C 80.925781 115.710938 81.066406 116.132812 81.910156 117.078125 C 82.535156 117.773438 82.609375 118.136719 82.394531 119.398438 C 81.976562 121.828125 82.464844 123.539062 84.070312 125.316406 C 84.523438 125.816406 85.308594 126.730469 85.8125 127.34375 C 86.71875 128.453125 88.496094 130.082031 90.40625 131.550781 L 91.398438 132.316406 L 91.328125 133.191406 C 91.289062 133.714844 91.117188 134.347656 90.90625 134.773438 C 90.710938 135.164062 90.34375 136.125 90.085938 136.90625 C 89.558594 138.527344 89.332031 139.007812 88.335938 140.605469 C 86.5625 143.460938 85.589844 144.058594 84.273438 143.105469 Z M 63.171875 119.253906 C 66.683594 118.703125 70.382812 117.570312 73.320312 116.144531 C 75.40625 115.136719 75.738281 114.882812 75.992188 114.113281 C 76.332031 113.085938 75.820312 111.195312 75.074219 110.707031 C 74.714844 110.46875 74.671875 110.480469 72.746094 111.402344 C 64.175781 115.488281 54.03125 115.726562 47.65625 111.988281 C 46.023438 111.03125 43.605469 108.625 42.558594 106.921875 C 40.570312 103.675781 39.6875 99.910156 39.875 95.476562 C 40.027344 91.867188 40.722656 89.097656 42.332031 85.722656 C 45.058594 80.011719 49.894531 75.726562 55.988281 73.625 C 58.824219 72.644531 60.132812 72.429688 63.246094 72.425781 C 66.078125 72.425781 67.367188 72.589844 69.402344 73.210938 C 74.519531 74.777344 77.984375 78.242188 79.246094 83.0625 C 79.675781 84.703125 79.878906 86.964844 79.785156 88.996094 C 79.628906 92.265625 79.007812 94.808594 77.730469 97.398438 C 77.042969 98.796875 76.757812 99.203125 75.773438 100.203125 C 74.871094 101.117188 74.382812 101.484375 73.53125 101.886719 C 72.117188 102.558594 70.964844 102.691406 70.410156 102.253906 C 69.378906 101.433594 69.625 99.175781 71.441406 92.753906 C 72.644531 88.5 73.105469 86.734375 73.765625 83.800781 C 74.046875 82.546875 74.316406 81.382812 74.363281 81.207031 C 74.484375 80.769531 74.25 80.734375 71.148438 80.699219 L 68.519531 80.667969 L 68.195312 81.59375 C 67.582031 83.34375 67.632812 83.289062 67.179688 82.574219 C 66.054688 80.804688 64.042969 79.886719 61.289062 79.886719 C 56.859375 79.886719 53.109375 81.839844 50.257812 85.640625 C 48.417969 88.089844 47.222656 90.699219 46.566406 93.699219 C 46.171875 95.515625 46.207031 99.597656 46.632812 101.171875 C 47.125 102.988281 47.964844 104.542969 49.058594 105.652344 C 50.609375 107.230469 52.160156 107.839844 54.628906 107.835938 C 57.894531 107.835938 61.253906 106.222656 63.089844 103.785156 L 63.800781 102.835938 L 64.109375 103.808594 C 64.660156 105.542969 65.515625 106.519531 67.007812 107.105469 C 68.171875 107.5625 71 107.5625 72.710938 107.101562 C 79.195312 105.351562 83.914062 99.375 85.035156 91.484375 C 86.035156 84.453125 83.886719 77.585938 79.289062 73.097656 C 73.910156 67.847656 65.5625 65.910156 57.324219 68 C 51.882812 69.378906 46.460938 72.507812 42.347656 76.644531 C 38.292969 80.726562 36.042969 85.203125 34.960938 91.347656 C 34.597656 93.410156 34.453125 98.210938 34.6875 100.417969 C 35.261719 105.785156 37.246094 109.996094 40.789062 113.367188 C 44.476562 116.871094 49.269531 118.886719 55.414062 119.519531 C 56.691406 119.652344 61.738281 119.476562 63.171875 119.253906 Z M 55.675781 102.394531 C 53.285156 101.78125 51.90625 98.921875 52.332031 95.460938 C 52.847656 91.269531 55.265625 87.402344 58.316406 85.894531 C 59.265625 85.425781 59.503906 85.371094 60.757812 85.320312 C 63.089844 85.226562 64.300781 85.867188 65.183594 87.65625 C 65.773438 88.855469 65.871094 90.136719 65.523438 92.085938 C 64.863281 95.761719 63.25 98.9375 61.15625 100.683594 C 59.832031 101.785156 58.414062 102.414062 57.144531 102.46875 C 56.582031 102.492188 55.921875 102.457031 55.675781 102.394531 Z M 55.675781 102.394531 " fill-opacity="1" fill-rule="nonzero"/><g fill="#ffffff" fill-opacity="1"><g transform="translate(129.689716, 48.463754)"><g><path d="M 29.265625 -30.5625 L 29.265625 -29.703125 C 28.640625 -29.472656 27.972656 -28.96875 27.265625 -28.1875 C 26.554688 -27.414062 25.898438 -26.207031 25.296875 -24.5625 L 16.1875 0.09375 C 15.957031 0.0625 15.710938 0.046875 15.453125 0.046875 C 15.191406 0.046875 14.929688 0.046875 14.671875 0.046875 C 14.441406 0.046875 14.195312 0.046875 13.9375 0.046875 C 13.6875 0.046875 13.441406 0.0625 13.203125 0.09375 L 2.203125 -26.9375 C 1.796875 -27.976562 1.347656 -28.691406 0.859375 -29.078125 C 0.367188 -29.460938 -0.0859375 -29.671875 -0.515625 -29.703125 L -0.515625 -30.5625 C 0.347656 -30.53125 1.363281 -30.5 2.53125 -30.46875 C 3.695312 -30.445312 4.867188 -30.4375 6.046875 -30.4375 C 7.367188 -30.4375 8.613281 -30.445312 9.78125 -30.46875 C 10.945312 -30.5 11.890625 -30.53125 12.609375 -30.5625 L 12.609375 -29.703125 C 11.679688 -29.671875 10.957031 -29.5625 10.4375 -29.375 C 9.925781 -29.1875 9.640625 -28.84375 9.578125 -28.34375 C 9.523438 -27.84375 9.703125 -27.085938 10.109375 -26.078125 L 17.953125 -6.09375 L 17.046875 -5.015625 L 23.015625 -21.0625 C 23.785156 -23.226562 24.1875 -24.925781 24.21875 -26.15625 C 24.25 -27.394531 23.945312 -28.285156 23.3125 -28.828125 C 22.675781 -29.378906 21.769531 -29.671875 20.59375 -29.703125 L 20.59375 -30.5625 C 21.570312 -30.53125 22.492188 -30.5 23.359375 -30.46875 C 24.222656 -30.445312 25.097656 -30.4375 25.984375 -30.4375 C 26.617188 -30.4375 27.21875 -30.445312 27.78125 -30.46875 C 28.34375 -30.5 28.835938 -30.53125 29.265625 -30.5625 Z M 29.265625 -30.5625 "/></g></g></g><g fill="#ffffff" fill-opacity="1"><g transform="translate(155.678858, 48.463754)"><g><path d="M 12.171875 -22.921875 C 14.703125 -22.921875 16.6875 -22.171875 18.125 -20.671875 C 19.570312 -19.179688 20.296875 -16.738281 20.296875 -13.34375 L 6.09375 -13.34375 L 6 -14.15625 L 14.84375 -14.15625 C 14.875 -15.570312 14.789062 -16.875 14.59375 -18.0625 C 14.394531 -19.257812 14.078125 -20.21875 13.640625 -20.9375 C 13.210938 -21.65625 12.640625 -22.015625 11.921875 -22.015625 C 10.910156 -22.015625 10.050781 -21.378906 9.34375 -20.109375 C 8.632812 -18.847656 8.210938 -16.75 8.078125 -13.8125 L 8.203125 -13.5625 C 8.171875 -13.207031 8.144531 -12.84375 8.125 -12.46875 C 8.113281 -12.101562 8.109375 -11.71875 8.109375 -11.3125 C 8.109375 -9.320312 8.390625 -7.707031 8.953125 -6.46875 C 9.515625 -5.238281 10.226562 -4.34375 11.09375 -3.78125 C 11.957031 -3.21875 12.835938 -2.9375 13.734375 -2.9375 C 14.335938 -2.9375 14.960938 -3.03125 15.609375 -3.21875 C 16.253906 -3.40625 16.90625 -3.75 17.5625 -4.25 C 18.226562 -4.757812 18.847656 -5.472656 19.421875 -6.390625 L 20.203125 -6.125 C 19.859375 -5.03125 19.3125 -3.960938 18.5625 -2.921875 C 17.8125 -1.890625 16.859375 -1.039062 15.703125 -0.375 C 14.554688 0.28125 13.175781 0.609375 11.5625 0.609375 C 9.613281 0.609375 7.890625 0.191406 6.390625 -0.640625 C 4.890625 -1.484375 3.710938 -2.753906 2.859375 -4.453125 C 2.015625 -6.148438 1.59375 -8.304688 1.59375 -10.921875 C 1.59375 -13.597656 2.046875 -15.828125 2.953125 -17.609375 C 3.859375 -19.398438 5.109375 -20.734375 6.703125 -21.609375 C 8.304688 -22.484375 10.128906 -22.921875 12.171875 -22.921875 Z M 12.171875 -22.921875 "/></g></g></g><g fill="#ffffff" fill-opacity="1"><g transform="translate(177.17846, 48.463754)"><g><path d="M 17.09375 -22.921875 C 18.300781 -22.921875 19.285156 -22.769531 20.046875 -22.46875 C 20.816406 -22.164062 21.414062 -21.753906 21.84375 -21.234375 C 22.300781 -20.691406 22.640625 -19.988281 22.859375 -19.125 C 23.078125 -18.257812 23.1875 -17.09375 23.1875 -15.625 L 23.1875 -4.015625 C 23.1875 -2.804688 23.394531 -1.984375 23.8125 -1.546875 C 24.226562 -1.117188 24.941406 -0.90625 25.953125 -0.90625 L 25.953125 0 C 25.398438 -0.03125 24.578125 -0.0664062 23.484375 -0.109375 C 22.390625 -0.148438 21.3125 -0.171875 20.25 -0.171875 C 19.15625 -0.171875 18.082031 -0.148438 17.03125 -0.109375 C 15.976562 -0.0664062 15.179688 -0.03125 14.640625 0 L 14.640625 -0.90625 C 15.503906 -0.90625 16.109375 -1.117188 16.453125 -1.546875 C 16.796875 -1.984375 16.96875 -2.804688 16.96875 -4.015625 L 16.96875 -17.4375 C 16.96875 -18.15625 16.894531 -18.78125 16.75 -19.3125 C 16.601562 -19.851562 16.34375 -20.273438 15.96875 -20.578125 C 15.59375 -20.878906 15.035156 -21.03125 14.296875 -21.03125 C 13.515625 -21.03125 12.800781 -20.8125 12.15625 -20.375 C 11.507812 -19.945312 10.988281 -19.347656 10.59375 -18.578125 C 10.207031 -17.816406 10.015625 -16.960938 10.015625 -16.015625 L 10.015625 -4.015625 C 10.015625 -2.804688 10.191406 -1.984375 10.546875 -1.546875 C 10.910156 -1.117188 11.507812 -0.90625 12.34375 -0.90625 L 12.34375 0 C 11.820312 -0.03125 11.066406 -0.0664062 10.078125 -0.109375 C 9.085938 -0.148438 8.0625 -0.171875 7 -0.171875 C 5.90625 -0.171875 4.78125 -0.148438 3.625 -0.109375 C 2.476562 -0.0664062 1.613281 -0.03125 1.03125 0 L 1.03125 -0.90625 C 2.039062 -0.90625 2.753906 -1.117188 3.171875 -1.546875 C 3.585938 -1.984375 3.796875 -2.804688 3.796875 -4.015625 L 3.796875 -17.609375 C 3.796875 -18.910156 3.601562 -19.867188 3.21875 -20.484375 C 2.832031 -21.097656 2.101562 -21.40625 1.03125 -21.40625 L 1.03125 -22.3125 C 1.957031 -22.226562 2.851562 -22.1875 3.71875 -22.1875 C 4.925781 -22.1875 6.050781 -22.238281 7.09375 -22.34375 C 8.144531 -22.445312 9.117188 -22.597656 10.015625 -22.796875 L 10.015625 -18.90625 C 10.734375 -20.375 11.710938 -21.410156 12.953125 -22.015625 C 14.191406 -22.617188 15.570312 -22.921875 17.09375 -22.921875 Z M 17.09375 -22.921875 "/></g></g></g><g fill="#ffffff" fill-opacity="1"><g transform="translate(203.686031, 48.463754)"><g><path d="M 12.171875 -22.921875 C 14.703125 -22.921875 16.6875 -22.171875 18.125 -20.671875 C 19.570312 -19.179688 20.296875 -16.738281 20.296875 -13.34375 L 6.09375 -13.34375 L 6 -14.15625 L 14.84375 -14.15625 C 14.875 -15.570312 14.789062 -16.875 14.59375 -18.0625 C 14.394531 -19.257812 14.078125 -20.21875 13.640625 -20.9375 C 13.210938 -21.65625 12.640625 -22.015625 11.921875 -22.015625 C 10.910156 -22.015625 10.050781 -21.378906 9.34375 -20.109375 C 8.632812 -18.847656 8.210938 -16.75 8.078125 -13.8125 L 8.203125 -13.5625 C 8.171875 -13.207031 8.144531 -12.84375 8.125 -12.46875 C 8.113281 -12.101562 8.109375 -11.71875 8.109375 -11.3125 C 8.109375 -9.320312 8.390625 -7.707031 8.953125 -6.46875 C 9.515625 -5.238281 10.226562 -4.34375 11.09375 -3.78125 C 11.957031 -3.21875 12.835938 -2.9375 13.734375 -2.9375 C 14.335938 -2.9375 14.960938 -3.03125 15.609375 -3.21875 C 16.253906 -3.40625 16.90625 -3.75 17.5625 -4.25 C 18.226562 -4.757812 18.847656 -5.472656 19.421875 -6.390625 L 20.203125 -6.125 C 19.859375 -5.03125 19.3125 -3.960938 18.5625 -2.921875 C 17.8125 -1.890625 16.859375 -1.039062 15.703125 -0.375 C 14.554688 0.28125 13.175781 0.609375 11.5625 0.609375 C 9.613281 0.609375 7.890625 0.191406 6.390625 -0.640625 C 4.890625 -1.484375 3.710938 -2.753906 2.859375 -4.453125 C 2.015625 -6.148438 1.59375 -8.304688 1.59375 -10.921875 C 1.59375 -13.597656 2.046875 -15.828125 2.953125 -17.609375 C 3.859375 -19.398438 5.109375 -20.734375 6.703125 -21.609375 C 8.304688 -22.484375 10.128906 -22.921875 12.171875 -22.921875 Z M 12.171875 -22.921875 "/></g></g></g><g fill="#ffffff" fill-opacity="1"><g transform="translate(225.444693, 48.463754)"><g><path d="M 9.796875 -29.40625 L 9.796875 -22.3125 L 14.890625 -22.3125 L 14.890625 -21.453125 L 9.796875 -21.453125 L 9.796875 -4.015625 C 9.796875 -3.148438 9.953125 -2.535156 10.265625 -2.171875 C 10.585938 -1.816406 11.066406 -1.640625 11.703125 -1.640625 C 12.222656 -1.640625 12.738281 -1.832031 13.25 -2.21875 C 13.769531 -2.613281 14.234375 -3.285156 14.640625 -4.234375 L 15.375 -3.84375 C 14.90625 -2.550781 14.203125 -1.484375 13.265625 -0.640625 C 12.335938 0.191406 11.066406 0.609375 9.453125 0.609375 C 8.503906 0.609375 7.671875 0.484375 6.953125 0.234375 C 6.234375 -0.00390625 5.628906 -0.367188 5.140625 -0.859375 C 4.503906 -1.492188 4.082031 -2.28125 3.875 -3.21875 C 3.675781 -4.15625 3.578125 -5.367188 3.578125 -6.859375 L 3.578125 -21.453125 L -0.046875 -21.453125 L -0.046875 -22.3125 L 3.578125 -22.3125 L 3.578125 -28.015625 C 4.785156 -28.015625 5.898438 -28.125 6.921875 -28.34375 C 7.953125 -28.5625 8.910156 -28.914062 9.796875 -29.40625 Z M 9.796875 -29.40625 "/></g></g></g><g fill="#ffffff" fill-opacity="1"><g transform="translate(240.468508, 48.463754)"><g><path d="M 12.171875 -22.921875 C 14.273438 -22.921875 16.117188 -22.53125 17.703125 -21.75 C 19.285156 -20.976562 20.519531 -19.726562 21.40625 -18 C 22.300781 -16.269531 22.75 -13.984375 22.75 -11.140625 C 22.75 -8.285156 22.300781 -6.003906 21.40625 -4.296875 C 20.519531 -2.585938 19.285156 -1.34375 17.703125 -0.5625 C 16.117188 0.21875 14.273438 0.609375 12.171875 0.609375 C 10.128906 0.609375 8.304688 0.21875 6.703125 -0.5625 C 5.109375 -1.34375 3.859375 -2.585938 2.953125 -4.296875 C 2.046875 -6.003906 1.59375 -8.285156 1.59375 -11.140625 C 1.59375 -13.984375 2.046875 -16.269531 2.953125 -18 C 3.859375 -19.726562 5.109375 -20.976562 6.703125 -21.75 C 8.304688 -22.53125 10.128906 -22.921875 12.171875 -22.921875 Z M 12.171875 -22.0625 C 11.023438 -22.0625 10.0625 -21.203125 9.28125 -19.484375 C 8.5 -17.773438 8.109375 -14.992188 8.109375 -11.140625 C 8.109375 -7.285156 8.5 -4.507812 9.28125 -2.8125 C 10.0625 -1.113281 11.023438 -0.265625 12.171875 -0.265625 C 13.347656 -0.265625 14.316406 -1.113281 15.078125 -2.8125 C 15.847656 -4.507812 16.234375 -7.285156 16.234375 -11.140625 C 16.234375 -14.992188 15.847656 -17.773438 15.078125 -19.484375 C 14.316406 -21.203125 13.347656 -22.0625 12.171875 -22.0625 Z M 12.171875 -22.0625 "/></g></g></g><g fill="#ffffff" fill-opacity="1"><g transform="translate(129.689716, 92.713751)"><g><path d="M 11.046875 -31.046875 C 12.484375 -31.046875 13.578125 -30.878906 14.328125 -30.546875 C 15.078125 -30.210938 15.738281 -29.84375 16.3125 -29.4375 C 16.664062 -29.238281 16.945312 -29.085938 17.15625 -28.984375 C 17.375 -28.890625 17.582031 -28.84375 17.78125 -28.84375 C 18.070312 -28.84375 18.28125 -29 18.40625 -29.3125 C 18.539062 -29.625 18.648438 -30.097656 18.734375 -30.734375 L 19.734375 -30.734375 C 19.703125 -30.242188 19.664062 -29.660156 19.625 -28.984375 C 19.582031 -28.304688 19.550781 -27.414062 19.53125 -26.3125 C 19.519531 -25.207031 19.515625 -23.75 19.515625 -21.9375 L 18.515625 -21.9375 C 18.429688 -23.3125 18.128906 -24.628906 17.609375 -25.890625 C 17.097656 -27.160156 16.34375 -28.195312 15.34375 -29 C 14.351562 -29.8125 13.050781 -30.21875 11.4375 -30.21875 C 9.914062 -30.21875 8.65625 -29.753906 7.65625 -28.828125 C 6.664062 -27.910156 6.171875 -26.707031 6.171875 -25.21875 C 6.171875 -23.914062 6.5 -22.828125 7.15625 -21.953125 C 7.820312 -21.078125 8.707031 -20.285156 9.8125 -19.578125 C 10.925781 -18.867188 12.128906 -18.113281 13.421875 -17.3125 C 14.921875 -16.394531 16.253906 -15.476562 17.421875 -14.5625 C 18.585938 -13.65625 19.507812 -12.65625 20.1875 -11.5625 C 20.863281 -10.46875 21.203125 -9.144531 21.203125 -7.59375 C 21.203125 -5.75 20.78125 -4.222656 19.9375 -3.015625 C 19.101562 -1.804688 17.992188 -0.898438 16.609375 -0.296875 C 15.234375 0.304688 13.710938 0.609375 12.046875 0.609375 C 10.515625 0.609375 9.300781 0.429688 8.40625 0.078125 C 7.519531 -0.265625 6.757812 -0.625 6.125 -1 C 5.5 -1.394531 5.007812 -1.59375 4.65625 -1.59375 C 4.375 -1.59375 4.164062 -1.429688 4.03125 -1.109375 C 3.90625 -0.796875 3.800781 -0.328125 3.71875 0.296875 L 2.71875 0.296875 C 2.78125 -0.304688 2.816406 -1.015625 2.828125 -1.828125 C 2.835938 -2.648438 2.847656 -3.722656 2.859375 -5.046875 C 2.878906 -6.367188 2.890625 -8.039062 2.890625 -10.0625 L 3.890625 -10.0625 C 4.003906 -8.332031 4.328125 -6.71875 4.859375 -5.21875 C 5.390625 -3.726562 6.207031 -2.53125 7.3125 -1.625 C 8.425781 -0.71875 9.90625 -0.265625 11.75 -0.265625 C 12.695312 -0.265625 13.59375 -0.457031 14.4375 -0.84375 C 15.289062 -1.226562 15.988281 -1.84375 16.53125 -2.6875 C 17.082031 -3.539062 17.359375 -4.644531 17.359375 -6 C 17.359375 -7.175781 17.078125 -8.203125 16.515625 -9.078125 C 15.953125 -9.960938 15.164062 -10.785156 14.15625 -11.546875 C 13.15625 -12.304688 11.976562 -13.09375 10.625 -13.90625 C 9.269531 -14.738281 8 -15.585938 6.8125 -16.453125 C 5.632812 -17.316406 4.691406 -18.316406 3.984375 -19.453125 C 3.285156 -20.585938 2.9375 -21.960938 2.9375 -23.578125 C 2.9375 -25.273438 3.316406 -26.675781 4.078125 -27.78125 C 4.835938 -28.882812 5.835938 -29.703125 7.078125 -30.234375 C 8.316406 -30.773438 9.640625 -31.046875 11.046875 -31.046875 Z M 11.046875 -31.046875 "/></g></g></g><g fill="#ffffff" fill-opacity="1"><g transform="translate(153.002566, 92.713751)"><g><path d="M 11.828125 -22.84375 C 13.671875 -22.84375 15.328125 -22.4375 16.796875 -21.625 C 18.265625 -20.820312 19.4375 -19.554688 20.3125 -17.828125 C 21.1875 -16.097656 21.625 -13.851562 21.625 -11.09375 C 21.625 -8.332031 21.1875 -6.09375 20.3125 -4.375 C 19.4375 -2.664062 18.265625 -1.40625 16.796875 -0.59375 C 15.328125 0.207031 13.671875 0.609375 11.828125 0.609375 C 10.015625 0.609375 8.363281 0.207031 6.875 -0.59375 C 5.394531 -1.40625 4.21875 -2.664062 3.34375 -4.375 C 2.46875 -6.09375 2.03125 -8.332031 2.03125 -11.09375 C 2.03125 -13.851562 2.46875 -16.097656 3.34375 -17.828125 C 4.21875 -19.554688 5.394531 -20.820312 6.875 -21.625 C 8.363281 -22.4375 10.015625 -22.84375 11.828125 -22.84375 Z M 11.828125 -21.96875 C 10.191406 -21.96875 8.847656 -21.117188 7.796875 -19.421875 C 6.742188 -17.722656 6.21875 -14.945312 6.21875 -11.09375 C 6.21875 -7.238281 6.742188 -4.46875 7.796875 -2.78125 C 8.847656 -1.101562 10.191406 -0.265625 11.828125 -0.265625 C 13.472656 -0.265625 14.816406 -1.101562 15.859375 -2.78125 C 16.910156 -4.46875 17.4375 -7.238281 17.4375 -11.09375 C 17.4375 -14.945312 16.910156 -17.722656 15.859375 -19.421875 C 14.816406 -21.117188 13.472656 -21.96875 11.828125 -21.96875 Z M 11.828125 -21.96875 "/></g></g></g><g fill="#ffffff" fill-opacity="1"><g transform="translate(176.660786, 92.713751)"><g><path d="M 12.046875 -22.84375 C 12.960938 -22.84375 13.851562 -22.722656 14.71875 -22.484375 C 15.582031 -22.253906 16.359375 -21.910156 17.046875 -21.453125 C 17.710938 -21.023438 18.21875 -20.53125 18.5625 -19.96875 C 18.90625 -19.40625 19.078125 -18.789062 19.078125 -18.125 C 19.078125 -17.351562 18.859375 -16.757812 18.421875 -16.34375 C 17.992188 -15.925781 17.453125 -15.71875 16.796875 -15.71875 C 16.160156 -15.71875 15.601562 -15.90625 15.125 -16.28125 C 14.65625 -16.65625 14.421875 -17.1875 14.421875 -17.875 C 14.421875 -18.53125 14.597656 -19.0625 14.953125 -19.46875 C 15.316406 -19.875 15.742188 -20.132812 16.234375 -20.25 C 15.941406 -20.769531 15.425781 -21.203125 14.6875 -21.546875 C 13.957031 -21.890625 13.175781 -22.0625 12.34375 -22.0625 C 11.625 -22.0625 10.90625 -21.890625 10.1875 -21.546875 C 9.46875 -21.203125 8.804688 -20.632812 8.203125 -19.84375 C 7.597656 -19.050781 7.109375 -17.96875 6.734375 -16.59375 C 6.359375 -15.226562 6.171875 -13.523438 6.171875 -11.484375 C 6.171875 -8.953125 6.457031 -6.9375 7.03125 -5.4375 C 7.613281 -3.9375 8.367188 -2.863281 9.296875 -2.21875 C 10.234375 -1.570312 11.265625 -1.25 12.390625 -1.25 C 13.140625 -1.25 13.898438 -1.390625 14.671875 -1.671875 C 15.453125 -1.960938 16.1875 -2.429688 16.875 -3.078125 C 17.570312 -3.734375 18.164062 -4.609375 18.65625 -5.703125 L 19.46875 -5.390625 C 19.175781 -4.472656 18.695312 -3.546875 18.03125 -2.609375 C 17.375 -1.671875 16.515625 -0.898438 15.453125 -0.296875 C 14.390625 0.304688 13.082031 0.609375 11.53125 0.609375 C 9.738281 0.609375 8.125 0.148438 6.6875 -0.765625 C 5.25 -1.691406 4.101562 -3.007812 3.25 -4.71875 C 2.40625 -6.4375 1.984375 -8.476562 1.984375 -10.84375 C 1.984375 -13.195312 2.40625 -15.269531 3.25 -17.0625 C 4.101562 -18.863281 5.289062 -20.273438 6.8125 -21.296875 C 8.34375 -22.328125 10.085938 -22.84375 12.046875 -22.84375 Z M 12.046875 -22.84375 "/></g></g></g><g fill="#ffffff" fill-opacity="1"><g transform="translate(197.642349, 92.713751)"><g><path d="M 6.1875 -33.03125 C 6.925781 -33.03125 7.566406 -32.753906 8.109375 -32.203125 C 8.660156 -31.660156 8.9375 -31.015625 8.9375 -30.265625 C 8.9375 -29.515625 8.660156 -28.863281 8.109375 -28.3125 C 7.566406 -27.769531 6.925781 -27.5 6.1875 -27.5 C 5.4375 -27.5 4.785156 -27.769531 4.234375 -28.3125 C 3.691406 -28.863281 3.421875 -29.515625 3.421875 -30.265625 C 3.421875 -31.015625 3.691406 -31.660156 4.234375 -32.203125 C 4.785156 -32.753906 5.4375 -33.03125 6.1875 -33.03125 Z M 8.421875 -22.703125 L 8.421875 -4.015625 C 8.421875 -2.804688 8.671875 -1.984375 9.171875 -1.546875 C 9.671875 -1.117188 10.515625 -0.90625 11.703125 -0.90625 L 11.703125 0 C 11.210938 -0.03125 10.46875 -0.0664062 9.46875 -0.109375 C 8.476562 -0.148438 7.476562 -0.171875 6.46875 -0.171875 C 5.5 -0.171875 4.507812 -0.148438 3.5 -0.109375 C 2.488281 -0.0664062 1.738281 -0.03125 1.25 0 L 1.25 -0.90625 C 2.425781 -0.90625 3.265625 -1.117188 3.765625 -1.546875 C 4.273438 -1.984375 4.53125 -2.804688 4.53125 -4.015625 L 4.53125 -17.53125 C 4.53125 -18.820312 4.300781 -19.773438 3.84375 -20.390625 C 3.382812 -21.015625 2.519531 -21.328125 1.25 -21.328125 L 1.25 -22.234375 C 2.175781 -22.148438 3.066406 -22.109375 3.921875 -22.109375 C 4.765625 -22.109375 5.566406 -22.15625 6.328125 -22.25 C 7.085938 -22.351562 7.785156 -22.503906 8.421875 -22.703125 Z M 8.421875 -22.703125 "/></g></g></g><g fill="#ffffff" fill-opacity="1"><g transform="translate(210.291732, 92.713751)"><g><path d="M 7.375 0.296875 C 6.195312 0.296875 5.175781 0.078125 4.3125 -0.359375 C 3.445312 -0.804688 2.789062 -1.429688 2.34375 -2.234375 C 1.90625 -3.046875 1.6875 -3.984375 1.6875 -5.046875 C 1.6875 -6.316406 1.976562 -7.351562 2.5625 -8.15625 C 3.15625 -8.96875 3.910156 -9.617188 4.828125 -10.109375 C 5.753906 -10.597656 6.726562 -11.003906 7.75 -11.328125 C 8.769531 -11.660156 9.738281 -11.976562 10.65625 -12.28125 C 11.582031 -12.582031 12.335938 -12.929688 12.921875 -13.328125 C 13.515625 -13.734375 13.8125 -14.269531 13.8125 -14.9375 L 13.8125 -17.609375 C 13.8125 -18.816406 13.628906 -19.738281 13.265625 -20.375 C 12.910156 -21.007812 12.429688 -21.429688 11.828125 -21.640625 C 11.222656 -21.859375 10.546875 -21.96875 9.796875 -21.96875 C 9.078125 -21.96875 8.304688 -21.867188 7.484375 -21.671875 C 6.671875 -21.472656 6.019531 -21.054688 5.53125 -20.421875 C 6.070312 -20.304688 6.546875 -20.015625 6.953125 -19.546875 C 7.359375 -19.085938 7.5625 -18.5 7.5625 -17.78125 C 7.5625 -17.0625 7.328125 -16.492188 6.859375 -16.078125 C 6.398438 -15.660156 5.8125 -15.453125 5.09375 -15.453125 C 4.257812 -15.453125 3.644531 -15.71875 3.25 -16.25 C 2.863281 -16.78125 2.671875 -17.378906 2.671875 -18.046875 C 2.671875 -18.796875 2.859375 -19.398438 3.234375 -19.859375 C 3.609375 -20.316406 4.082031 -20.75 4.65625 -21.15625 C 5.320312 -21.613281 6.179688 -22.007812 7.234375 -22.34375 C 8.285156 -22.675781 9.472656 -22.84375 10.796875 -22.84375 C 11.972656 -22.84375 12.976562 -22.703125 13.8125 -22.421875 C 14.644531 -22.148438 15.335938 -21.753906 15.890625 -21.234375 C 16.640625 -20.546875 17.128906 -19.703125 17.359375 -18.703125 C 17.585938 -17.710938 17.703125 -16.53125 17.703125 -15.15625 L 17.703125 -3.15625 C 17.703125 -2.4375 17.804688 -1.914062 18.015625 -1.59375 C 18.234375 -1.28125 18.570312 -1.125 19.03125 -1.125 C 19.351562 -1.125 19.65625 -1.191406 19.9375 -1.328125 C 20.226562 -1.472656 20.578125 -1.707031 20.984375 -2.03125 L 21.453125 -1.296875 C 20.847656 -0.835938 20.269531 -0.457031 19.71875 -0.15625 C 19.175781 0.144531 18.445312 0.296875 17.53125 0.296875 C 16.695312 0.296875 16.003906 0.15625 15.453125 -0.125 C 14.910156 -0.414062 14.5 -0.84375 14.21875 -1.40625 C 13.945312 -1.96875 13.8125 -2.679688 13.8125 -3.546875 C 13.039062 -2.242188 12.113281 -1.273438 11.03125 -0.640625 C 9.945312 -0.015625 8.726562 0.296875 7.375 0.296875 Z M 8.9375 -1.421875 C 9.882812 -1.421875 10.769531 -1.691406 11.59375 -2.234375 C 12.414062 -2.785156 13.15625 -3.609375 13.8125 -4.703125 L 13.8125 -13.171875 C 13.46875 -12.679688 12.960938 -12.269531 12.296875 -11.9375 C 11.640625 -11.601562 10.921875 -11.269531 10.140625 -10.9375 C 9.367188 -10.613281 8.628906 -10.226562 7.921875 -9.78125 C 7.210938 -9.332031 6.628906 -8.75 6.171875 -8.03125 C 5.710938 -7.3125 5.484375 -6.375 5.484375 -5.21875 C 5.484375 -4.070312 5.789062 -3.148438 6.40625 -2.453125 C 7.03125 -1.765625 7.875 -1.421875 8.9375 -1.421875 Z M 8.9375 -1.421875 "/></g></g></g><g fill="#ffffff" fill-opacity="1"><g transform="translate(231.791356, 92.713751)"><g><path d="M 8.109375 -33.84375 L 8.109375 -4.015625 C 8.109375 -2.804688 8.359375 -1.984375 8.859375 -1.546875 C 9.367188 -1.117188 10.210938 -0.90625 11.390625 -0.90625 L 11.390625 0 C 10.898438 -0.03125 10.160156 -0.0664062 9.171875 -0.109375 C 8.179688 -0.148438 7.179688 -0.171875 6.171875 -0.171875 C 5.191406 -0.171875 4.195312 -0.148438 3.1875 -0.109375 C 2.1875 -0.0664062 1.441406 -0.03125 0.953125 0 L 0.953125 -0.90625 C 2.128906 -0.90625 2.96875 -1.117188 3.46875 -1.546875 C 3.976562 -1.984375 4.234375 -2.804688 4.234375 -4.015625 L 4.234375 -28.671875 C 4.234375 -29.960938 4 -30.914062 3.53125 -31.53125 C 3.070312 -32.15625 2.210938 -32.46875 0.953125 -32.46875 L 0.953125 -33.375 C 1.867188 -33.289062 2.757812 -33.25 3.625 -33.25 C 4.457031 -33.25 5.253906 -33.296875 6.015625 -33.390625 C 6.785156 -33.492188 7.484375 -33.644531 8.109375 -33.84375 Z M 8.109375 -33.84375 "/></g></g></g><g fill="#ffffff" fill-opacity="1"><g transform="translate(129.689716, 136.963749)"><g><path d="M 35.796875 -30.5625 L 35.796875 -29.703125 C 34.816406 -29.671875 34.070312 -29.5625 33.5625 -29.375 C 33.0625 -29.1875 32.722656 -28.84375 32.546875 -28.34375 C 32.378906 -27.84375 32.296875 -27.054688 32.296875 -25.984375 L 32.296875 -4.578125 C 32.296875 -3.535156 32.378906 -2.753906 32.546875 -2.234375 C 32.722656 -1.722656 33.0625 -1.378906 33.5625 -1.203125 C 34.070312 -1.035156 34.816406 -0.921875 35.796875 -0.859375 L 35.796875 0 C 35.128906 -0.0625 34.296875 -0.0976562 33.296875 -0.109375 C 32.304688 -0.117188 31.3125 -0.125 30.3125 -0.125 C 29.1875 -0.125 28.132812 -0.117188 27.15625 -0.109375 C 26.175781 -0.0976562 25.382812 -0.0625 24.78125 0 L 24.78125 -0.859375 C 25.757812 -0.921875 26.5 -1.035156 27 -1.203125 C 27.507812 -1.378906 27.847656 -1.722656 28.015625 -2.234375 C 28.191406 -2.753906 28.28125 -3.535156 28.28125 -4.578125 L 28.28125 -28.328125 L 28.453125 -28.1875 L 17.875 0.21875 L 17.1875 0.21875 L 6.296875 -27.796875 L 6.296875 -5.015625 C 6.296875 -3.972656 6.390625 -3.15625 6.578125 -2.5625 C 6.765625 -1.976562 7.140625 -1.5625 7.703125 -1.3125 C 8.265625 -1.070312 9.109375 -0.921875 10.234375 -0.859375 L 10.234375 0 C 9.710938 -0.0625 9.035156 -0.0976562 8.203125 -0.109375 C 7.367188 -0.117188 6.578125 -0.125 5.828125 -0.125 C 5.109375 -0.125 4.378906 -0.117188 3.640625 -0.109375 C 2.910156 -0.0976562 2.300781 -0.0625 1.8125 0 L 1.8125 -0.859375 C 2.789062 -0.921875 3.53125 -1.070312 4.03125 -1.3125 C 4.539062 -1.5625 4.878906 -1.976562 5.046875 -2.5625 C 5.222656 -3.15625 5.3125 -3.972656 5.3125 -5.015625 L 5.3125 -25.984375 C 5.3125 -27.054688 5.222656 -27.84375 5.046875 -28.34375 C 4.878906 -28.84375 4.539062 -29.1875 4.03125 -29.375 C 3.53125 -29.5625 2.789062 -29.671875 1.8125 -29.703125 L 1.8125 -30.5625 C 2.300781 -30.53125 2.910156 -30.5 3.640625 -30.46875 C 4.378906 -30.445312 5.109375 -30.4375 5.828125 -30.4375 C 6.460938 -30.4375 7.117188 -30.445312 7.796875 -30.46875 C 8.472656 -30.5 9.039062 -30.53125 9.5 -30.5625 L 19.296875 -4.75 L 18.5625 -4.40625 L 28.28125 -30.4375 C 28.625 -30.4375 28.957031 -30.4375 29.28125 -30.4375 C 29.613281 -30.4375 29.957031 -30.4375 30.3125 -30.4375 C 31.3125 -30.4375 32.304688 -30.445312 33.296875 -30.46875 C 34.296875 -30.5 35.128906 -30.53125 35.796875 -30.5625 Z M 35.796875 -30.5625 "/></g></g></g><g fill="#ffffff" fill-opacity="1"><g transform="translate(166.51528, 136.963749)"><g><path d="M 11.75 -22.84375 C 14.28125 -22.84375 16.253906 -22.070312 17.671875 -20.53125 C 19.097656 -18.988281 19.8125 -16.59375 19.8125 -13.34375 L 4.578125 -13.34375 L 4.53125 -14.15625 L 15.671875 -14.15625 C 15.722656 -15.570312 15.601562 -16.875 15.3125 -18.0625 C 15.03125 -19.257812 14.578125 -20.21875 13.953125 -20.9375 C 13.335938 -21.65625 12.539062 -22.015625 11.5625 -22.015625 C 10.238281 -22.015625 9.066406 -21.351562 8.046875 -20.03125 C 7.023438 -18.707031 6.414062 -16.609375 6.21875 -13.734375 L 6.34375 -13.5625 C 6.289062 -13.125 6.25 -12.644531 6.21875 -12.125 C 6.1875 -11.613281 6.171875 -11.097656 6.171875 -10.578125 C 6.171875 -8.617188 6.488281 -6.929688 7.125 -5.515625 C 7.757812 -4.109375 8.585938 -3.035156 9.609375 -2.296875 C 10.628906 -1.566406 11.6875 -1.203125 12.78125 -1.203125 C 13.644531 -1.203125 14.460938 -1.335938 15.234375 -1.609375 C 16.015625 -1.890625 16.734375 -2.34375 17.390625 -2.96875 C 18.054688 -3.601562 18.632812 -4.457031 19.125 -5.53125 L 19.984375 -5.1875 C 19.671875 -4.226562 19.15625 -3.300781 18.4375 -2.40625 C 17.71875 -1.519531 16.8125 -0.796875 15.71875 -0.234375 C 14.625 0.328125 13.359375 0.609375 11.921875 0.609375 C 9.847656 0.609375 8.066406 0.132812 6.578125 -0.8125 C 5.097656 -1.769531 3.960938 -3.085938 3.171875 -4.765625 C 2.378906 -6.453125 1.984375 -8.390625 1.984375 -10.578125 C 1.984375 -13.109375 2.382812 -15.285156 3.1875 -17.109375 C 4 -18.941406 5.140625 -20.351562 6.609375 -21.34375 C 8.078125 -22.34375 9.789062 -22.84375 11.75 -22.84375 Z M 11.75 -22.84375 "/></g></g></g><g fill="#ffffff" fill-opacity="1"><g transform="translate(188.360276, 136.963749)"><g><path d="M 20.890625 -33.84375 L 20.890625 -4.703125 C 20.890625 -3.410156 21.125 -2.453125 21.59375 -1.828125 C 22.070312 -1.210938 22.929688 -0.90625 24.171875 -0.90625 L 24.171875 0 C 23.285156 -0.0820312 22.394531 -0.125 21.5 -0.125 C 20.664062 -0.125 19.863281 -0.0820312 19.09375 0 C 18.332031 0.0820312 17.640625 0.238281 17.015625 0.46875 L 17.015625 -28.671875 C 17.015625 -29.960938 16.78125 -30.914062 16.3125 -31.53125 C 15.851562 -32.15625 14.992188 -32.46875 13.734375 -32.46875 L 13.734375 -33.375 C 14.648438 -33.289062 15.539062 -33.25 16.40625 -33.25 C 17.238281 -33.25 18.035156 -33.296875 18.796875 -33.390625 C 19.566406 -33.492188 20.265625 -33.644531 20.890625 -33.84375 Z M 11.828125 -22.84375 C 13.097656 -22.84375 14.285156 -22.539062 15.390625 -21.9375 C 16.492188 -21.332031 17.234375 -20.296875 17.609375 -18.828125 L 17.046875 -18.390625 C 16.648438 -19.597656 16.023438 -20.472656 15.171875 -21.015625 C 14.328125 -21.566406 13.328125 -21.84375 12.171875 -21.84375 C 10.472656 -21.84375 9.054688 -20.960938 7.921875 -19.203125 C 6.785156 -17.453125 6.234375 -14.75 6.265625 -11.09375 C 6.265625 -8.757812 6.484375 -6.820312 6.921875 -5.28125 C 7.367188 -3.75 8.03125 -2.597656 8.90625 -1.828125 C 9.789062 -1.066406 10.863281 -0.6875 12.125 -0.6875 C 13.332031 -0.6875 14.425781 -1.203125 15.40625 -2.234375 C 16.382812 -3.273438 16.976562 -4.804688 17.1875 -6.828125 L 17.703125 -6.21875 C 17.472656 -4.03125 16.773438 -2.34375 15.609375 -1.15625 C 14.441406 0.0195312 12.863281 0.609375 10.875 0.609375 C 9.09375 0.609375 7.53125 0.175781 6.1875 -0.6875 C 4.851562 -1.550781 3.832031 -2.847656 3.125 -4.578125 C 2.425781 -6.304688 2.078125 -8.476562 2.078125 -11.09375 C 2.078125 -13.71875 2.53125 -15.898438 3.4375 -17.640625 C 4.34375 -19.378906 5.535156 -20.679688 7.015625 -21.546875 C 8.492188 -22.410156 10.097656 -22.84375 11.828125 -22.84375 Z M 11.828125 -22.84375 "/></g></g></g><g fill="#ffffff" fill-opacity="1"><g transform="translate(213.443171, 136.963749)"><g><path d="M 6.1875 -33.03125 C 6.925781 -33.03125 7.566406 -32.753906 8.109375 -32.203125 C 8.660156 -31.660156 8.9375 -31.015625 8.9375 -30.265625 C 8.9375 -29.515625 8.660156 -28.863281 8.109375 -28.3125 C 7.566406 -27.769531 6.925781 -27.5 6.1875 -27.5 C 5.4375 -27.5 4.785156 -27.769531 4.234375 -28.3125 C 3.691406 -28.863281 3.421875 -29.515625 3.421875 -30.265625 C 3.421875 -31.015625 3.691406 -31.660156 4.234375 -32.203125 C 4.785156 -32.753906 5.4375 -33.03125 6.1875 -33.03125 Z M 8.421875 -22.703125 L 8.421875 -4.015625 C 8.421875 -2.804688 8.671875 -1.984375 9.171875 -1.546875 C 9.671875 -1.117188 10.515625 -0.90625 11.703125 -0.90625 L 11.703125 0 C 11.210938 -0.03125 10.46875 -0.0664062 9.46875 -0.109375 C 8.476562 -0.148438 7.476562 -0.171875 6.46875 -0.171875 C 5.5 -0.171875 4.507812 -0.148438 3.5 -0.109375 C 2.488281 -0.0664062 1.738281 -0.03125 1.25 0 L 1.25 -0.90625 C 2.425781 -0.90625 3.265625 -1.117188 3.765625 -1.546875 C 4.273438 -1.984375 4.53125 -2.804688 4.53125 -4.015625 L 4.53125 -17.53125 C 4.53125 -18.820312 4.300781 -19.773438 3.84375 -20.390625 C 3.382812 -21.015625 2.519531 -21.328125 1.25 -21.328125 L 1.25 -22.234375 C 2.175781 -22.148438 3.066406 -22.109375 3.921875 -22.109375 C 4.765625 -22.109375 5.566406 -22.15625 6.328125 -22.25 C 7.085938 -22.351562 7.785156 -22.503906 8.421875 -22.703125 Z M 8.421875 -22.703125 "/></g></g></g><g fill="#ffffff" fill-opacity="1"><g transform="translate(226.092554, 136.963749)"><g><path d="M 7.375 0.296875 C 6.195312 0.296875 5.175781 0.078125 4.3125 -0.359375 C 3.445312 -0.804688 2.789062 -1.429688 2.34375 -2.234375 C 1.90625 -3.046875 1.6875 -3.984375 1.6875 -5.046875 C 1.6875 -6.316406 1.976562 -7.351562 2.5625 -8.15625 C 3.15625 -8.96875 3.910156 -9.617188 4.828125 -10.109375 C 5.753906 -10.597656 6.726562 -11.003906 7.75 -11.328125 C 8.769531 -11.660156 9.738281 -11.976562 10.65625 -12.28125 C 11.582031 -12.582031 12.335938 -12.929688 12.921875 -13.328125 C 13.515625 -13.734375 13.8125 -14.269531 13.8125 -14.9375 L 13.8125 -17.609375 C 13.8125 -18.816406 13.628906 -19.738281 13.265625 -20.375 C 12.910156 -21.007812 12.429688 -21.429688 11.828125 -21.640625 C 11.222656 -21.859375 10.546875 -21.96875 9.796875 -21.96875 C 9.078125 -21.96875 8.304688 -21.867188 7.484375 -21.671875 C 6.671875 -21.472656 6.019531 -21.054688 5.53125 -20.421875 C 6.070312 -20.304688 6.546875 -20.015625 6.953125 -19.546875 C 7.359375 -19.085938 7.5625 -18.5 7.5625 -17.78125 C 7.5625 -17.0625 7.328125 -16.492188 6.859375 -16.078125 C 6.398438 -15.660156 5.8125 -15.453125 5.09375 -15.453125 C 4.257812 -15.453125 3.644531 -15.71875 3.25 -16.25 C 2.863281 -16.78125 2.671875 -17.378906 2.671875 -18.046875 C 2.671875 -18.796875 2.859375 -19.398438 3.234375 -19.859375 C 3.609375 -20.316406 4.082031 -20.75 4.65625 -21.15625 C 5.320312 -21.613281 6.179688 -22.007812 7.234375 -22.34375 C 8.285156 -22.675781 9.472656 -22.84375 10.796875 -22.84375 C 11.972656 -22.84375 12.976562 -22.703125 13.8125 -22.421875 C 14.644531 -22.148438 15.335938 -21.753906 15.890625 -21.234375 C 16.640625 -20.546875 17.128906 -19.703125 17.359375 -18.703125 C 17.585938 -17.710938 17.703125 -16.53125 17.703125 -15.15625 L 17.703125 -3.15625 C 17.703125 -2.4375 17.804688 -1.914062 18.015625 -1.59375 C 18.234375 -1.28125 18.570312 -1.125 19.03125 -1.125 C 19.351562 -1.125 19.65625 -1.191406 19.9375 -1.328125 C 20.226562 -1.472656 20.578125 -1.707031 20.984375 -2.03125 L 21.453125 -1.296875 C 20.847656 -0.835938 20.269531 -0.457031 19.71875 -0.15625 C 19.175781 0.144531 18.445312 0.296875 17.53125 0.296875 C 16.695312 0.296875 16.003906 0.15625 15.453125 -0.125 C 14.910156 -0.414062 14.5 -0.84375 14.21875 -1.40625 C 13.945312 -1.96875 13.8125 -2.679688 13.8125 -3.546875 C 13.039062 -2.242188 12.113281 -1.273438 11.03125 -0.640625 C 9.945312 -0.015625 8.726562 0.296875 7.375 0.296875 Z M 8.9375 -1.421875 C 9.882812 -1.421875 10.769531 -1.691406 11.59375 -2.234375 C 12.414062 -2.785156 13.15625 -3.609375 13.8125 -4.703125 L 13.8125 -13.171875 C 13.46875 -12.679688 12.960938 -12.269531 12.296875 -11.9375 C 11.640625 -11.601562 10.921875 -11.269531 10.140625 -10.9375 C 9.367188 -10.613281 8.628906 -10.226562 7.921875 -9.78125 C 7.210938 -9.332031 6.628906 -8.75 6.171875 -8.03125 C 5.710938 -7.3125 5.484375 -6.375 5.484375 -5.21875 C 5.484375 -4.070312 5.789062 -3.148438 6.40625 -2.453125 C 7.03125 -1.765625 7.875 -1.421875 8.9375 -1.421875 Z M 8.9375 -1.421875 "/></g></g></g></svg>