<?xml version="1.0" encoding="UTF-8" standalone="no"?>
<!-- Created with Inkscape (http://www.inkscape.org/) -->

<svg
   width="175mm"
   height="190mm"
   viewBox="0 0 175 190"
   version="1.1"
   id="svg1"
   xml:space="preserve"
   xmlns="http://www.w3.org/2000/svg"
   xmlns:svg="http://www.w3.org/2000/svg"><defs
     id="defs1" /><g
     id="layer1"><path
       style="fill:#000000"
       d="m 124.17157,188.47869 c -0.48653,-0.35244 -1.39302,-1.42752 -2.06839,-2.45306 -0.78097,-1.18589 -1.56289,-2.08472 -2.23133,-2.56494 -1.19199,-0.85636 -1.46673,-1.56142 -1.43528,-3.68331 0.0235,-1.58328 -0.44898,-2.78428 -1.23639,-3.14305 -0.38143,-0.17379 -1.1414,-0.174 -2.87376,-8.1e-4 -2.45541,0.24547 -4.67232,0.137 -5.75642,-0.28166 -0.34925,-0.13488 -1.397,-0.82338 -2.32833,-1.53001 -2.05555,-1.5596 -3.22692,-2.08245 -5.71557,-2.55118 -2.61133,-0.49184 -4.78409,-0.33019 -8.45782,0.62923 -1.96831,0.51404 -3.777753,0.83419 -5.418804,0.95875 -1.355058,0.10286 -2.78753,0.32384 -3.183272,0.49108 -0.395742,0.16723 -1.719655,1.10963 -2.94203,2.09422 -4.608435,3.71195 -7.070427,5.25381 -8.389126,5.25381 -1.049077,0 -1.849939,-0.4022 -3.979101,-1.99835 -2.343058,-1.7565 -2.774338,-1.98075 -4.506445,-2.34315 -1.02736,-0.21496 -1.68022,-0.2358 -2.520437,-0.0805 -1.500257,0.27734 -2.41601,-0.13376 -4.523226,-2.03055 -1.15978,-1.04397 -2.176003,-1.71055 -3.771755,-2.47405 -1.657686,-0.79314 -2.561665,-1.39502 -3.749789,-2.49666 -0.914686,-0.84811 -1.834668,-1.5107 -2.212899,-1.59377 -0.947342,-0.20807 -1.792963,-1.01606 -2.212167,-2.11373 -0.404496,-1.05916 -0.802327,-1.33911 -2.662727,-1.87372 -1.051322,-0.30211 -2.535663,-1.37458 -2.535663,-1.83208 0,-0.0878 0.200293,-0.61244 0.445096,-1.16586 0.561617,-1.26963 0.369565,-1.77208 -1.012308,-2.64844 -1.357218,-0.86072 -2.053247,-0.8183 -3.598518,0.21932 -1.628097,1.09324 -2.409559,1.14375 -3.722282,0.24057 -1.247207,-0.8581 -2.184911,-2.00374 -2.624459,-3.20642 -0.472999,-1.29421 -0.908391,-1.70995 -2.441168,-2.33096 -1.18159,-0.47873 -1.3538,-0.63005 -1.806697,-1.5875 -0.275338,-0.58208 -0.574652,-1.20121 -0.665142,-1.37583 -0.09049,-0.17463 -0.698753,-0.60513 -1.351696,-0.95667 -0.811154,-0.43673 -1.962987,-1.45337 -3.636599,-3.20978 -2.890989,-3.03402 -3.915482,-3.66522 -5.948985,-3.66522 -1.005813,0 -1.466999,-0.11023 -2.022191,-0.48335 -1.1539187,-0.77548 -2.003544,-2.42397 -2.401389,-4.65932 -0.430928,-2.42123 -0.647825,-2.98505 -1.27808,-3.32235 -0.381596,-0.20422 -0.658135,-0.21084 -1.181794,-0.0283 -1.122606,0.39134 -1.813996,0.29645 -2.294937,-0.31497 -0.396588,-0.50418 -0.423803,-0.74365 -0.306701,-2.69875 0.106994,-1.78633 0.03227,-2.69467 -0.446371,-5.4263 -1.533872,-8.75386 -1.69149,-10.87985 -0.988788,-13.33707 0.628469,-2.19764 2.168939,-4.85876 5.159022,-8.91207 2.1816383,-2.9574 3.711361,-5.378581 4.932878,-7.807553 2.357827,-4.68849 3.275515,-5.76103 4.636914,-5.41934 0.38694,0.0971 0.583721,0.34745 0.745555,0.94845 0.188651,0.7006 0.12745,1.11348 -0.431084,2.90829 -0.746287,2.398131 -0.750643,3.657115 -0.01609,4.650659 0.261422,0.353587 0.556506,1.211474 0.679583,1.975714 0.380496,2.36268 0.889733,2.94855 3.242669,3.7307 l 1.736462,0.57722 0.943134,-0.45457 c 0.518723,-0.25001 1.454072,-0.73938 2.078554,-1.0875 1.324149,-0.73814 2.675369,-0.82989 4.45201,-0.30228 0.632334,0.18778 1.380123,0.27208 1.730648,0.19509 0.757308,-0.16633 1.774502,-1.13281 2.670048,-2.53693 1.093333,-1.714227 3.236521,-7.681523 3.797474,-10.573343 0.250364,-1.29068 0.405216,-1.59352 1.257055,-2.45836 0.635079,-0.64478 1.570471,-2.10682 2.701097,-4.22188 1.017457,-1.90336 1.968705,-3.41335 2.310356,-3.66741 0.52745,-0.39222 0.673207,-0.40819 1.5875,-0.17388 0.553699,0.1419 1.496752,0.27912 2.095675,0.30494 1.4931,0.0644 1.869158,-0.31856 2.316774,-2.35903 0.427623,-1.94933 0.71958,-2.56228 1.555465,-3.26563 0.691378,-0.58176 3.001364,-1.20757 4.457357,-1.20757 0.979309,0 1.81186,-0.36536 2.435288,-1.06869 0.675433,-0.76202 2.253988,-1.68298 2.884661,-1.68298 0.94813,0 1.46718,0.29315 3.574775,2.01894 2.46777,2.02071 3.446441,2.48379 5.284813,2.50063 1.089651,0.01 1.584714,-0.0982 2.329156,-0.50884 1.335967,-0.73696 1.492056,-1.32071 0.77837,-2.91101 -0.310626,-0.69217 -0.564775,-1.42938 -0.564775,-1.63824 0,-0.20886 0.299302,-0.91008 0.665115,-1.55827 0.517286,-0.91658 0.707406,-1.57901 0.855396,-2.98045 0.261676,-2.47802 0.992368,-3.95276 2.289489,-4.62084 0.903865,-0.46554 1.094718,-0.4834 3.737726,-0.34977 3.696993,0.18691 4.714813,-0.0882 6.45045,-1.74376 0.679325,-0.64796 1.63945,-1.71274 2.13361,-2.36617 0.49417,-0.65343 1.29232,-1.6643 1.77369,-2.24639 1.48546,-1.79628 1.68465,-2.49463 0.91119,-3.19461 -0.71715,-0.649 -0.97451,-1.36286 -1.08809,-3.01801 -0.0907,-1.32231 -0.19097,-1.64015 -0.66749,-2.11667 -0.508,-0.508 -0.71444,-0.56141 -2.196312,-0.56821 -2.703908,-0.0124 -3.295083,-0.68451 -3.34457,-3.8025 -0.04552,-2.86782 -0.02362,-2.78182 -0.836168,-3.284 -0.920971,-0.56919 -1.370702,-1.40153 -1.370702,-2.53683 0,-1.11151 0.363768,-1.79649 1.537344,-2.89484 0.690424,-0.64617 1.012246,-1.15283 1.196143,-1.88315 0.152482,-0.60556 0.497441,-1.2288 0.875716,-1.58216 0.343272,-0.32067 0.62413,-0.80163 0.62413,-1.06881 0,-0.70316 -0.910569,-1.90787 -1.904254,-2.51937 -1.08392,-0.66704 -1.797915,-2.02598 -1.604934,-3.05466 0.310155,-1.65326 1.399819,-2.33961 5.226616,-3.29207 4.006581,-0.99722 4.709671,-1.33746 6.553011,-3.17119 2.38437,-2.37194 3.36761,-4.39633 3.47684,-7.1584314 0.0739,-1.8679701 0.39547,-2.7168695 1.18369,-3.1244695 1.27831,-0.6610404 1.90884,-0.3749604 4.64727,2.1084798 1.131,1.0256797 2.38836,1.9643401 2.89207,2.1590001 0.89108,0.34438 0.89123,0.34436 1.89248,-0.31885 1.78145,-1.1799804 2.19832,-1.2331904 8.44678,-1.0780504 2.4334,0.0604 3.34678,-0.22854 4.93091,-1.5599401 0.50672,-0.4258797 1.12584,-0.8181094 1.37583,-0.8716094 0.24999,-0.0535 1.25451,-0.2408 2.23227,-0.41621 2.10445,-0.3775504 2.84248,-0.8227604 4.189,-2.5269604 1.15111,-1.4569 2.61236,-2.4600401 3.58345,-2.4600401 0.82622,0 1.69867,0.68796 2.85154,2.2485401 1.20541,1.6317 2.2036,2.13669 4.51845,2.28593 1.21463,0.0783 2.16176,0.26131 2.64584,0.5112104 0.91147,0.4705497 1.61354,1.6391791 1.92804,3.2093192 0.12826,0.6402907 0.43755,1.8138807 0.68733,2.6079917 0.45394,1.4432 0.45396,1.44415 0.0372,2.21526 -0.33603,0.62176 -0.84816,0.99872 -2.63943,1.94284 -2.63316,1.38785 -3.04001,1.92628 -2.82674,3.74089 0.11631,0.98961 0.0745,1.15449 -0.41738,1.64638 -0.51781,0.51781 -0.66297,0.54664 -2.75291,0.54664 -2.29862,0 -3.33055,0.2553 -3.99327,0.98794 -0.19298,0.21334 -0.69216,1.33085 -1.1093,2.48337 -0.91433,2.52623 -1.25299,3.09412 -2.66337,4.46619 -1.22072,1.18755 -1.76186,2.10663 -2.13306,3.6228 -0.57463,2.34709 -1.32824,3.15046 -3.56783,3.80345 -2.21267,0.64513 -3.35146,2.45645 -3.12566,4.97157 0.20609,2.29562 1.53719,3.99023 3.25885,4.1488 2.28697,0.21063 2.64797,0.51741 3.13652,2.66543 0.51479,2.26334 0.98778,2.97582 2.4699,3.72044 0.87144,0.43782 1.57957,1.47533 1.76794,2.59027 0.12336,0.73018 0.0222,1.10471 -0.69936,2.58798 -0.46398,0.95384 -1.32707,2.29757 -1.91799,2.98606 -1.62247,1.89038 -1.83051,2.43371 -1.83051,4.7807 0,1.54721 0.10405,2.27924 0.45128,3.175 0.24821,0.64029 0.52138,1.78329 0.60706,2.54 0.23807,2.10279 0.81427,3.41111 1.98428,4.50551 0.56008,0.5239 1.29824,1.09728 1.64035,1.2742 0.95707,0.49491 2.59148,2.36286 3.16657,3.61903 0.28459,0.62162 0.69367,1.9596 0.90908,2.9733 0.2154,1.0137 0.54103,1.99249 0.72362,2.17508 0.22122,0.22122 0.95465,0.3837 2.19821,0.48699 2.75806,0.22908 3.50086,0.63746 5.31775,2.9236 0.57581,0.72451 0.82801,0.88062 1.42272,0.88062 1.33971,0 2.91929,-0.90589 4.59153,-2.63325 1.75456,-1.81239 2.53383,-2.13008 3.72011,-1.51663 0.92798,0.47988 1.26092,0.4297 2.11301,-0.31844 0.65157,-0.57209 0.86285,-0.64315 1.61301,-0.54253 0.66241,0.0889 1.00515,0.29268 1.47325,0.87619 0.91814,1.14448 1.25382,1.2574 2.2409,0.75383 0.46268,-0.23604 1.16557,-0.42917 1.56196,-0.42917 1.12782,0 1.69869,0.61626 2.35213,2.53913 0.32035,0.94272 1.22782,3.06689 2.01658,4.72037 0.78876,1.65348 1.65022,3.673078 1.91436,4.488002 0.6557,2.023011 1.38472,3.422831 2.36087,4.533211 0.90012,1.02389 1.13906,1.64656 0.93849,2.4457 -0.20508,0.81709 -0.85126,1.05268 -2.11877,0.77248 -0.88813,-0.19633 -1.50222,-0.16597 -3.50664,0.17339 -3.2805,0.55539 -5.57584,1.67798 -8.00549,3.91526 -2.99656,2.7593 -4.74577,3.95012 -9.35538,6.36888 -1.80446,0.94683 -4.56671,2.53433 -6.13834,3.52777 -6.09584,3.85322 -10.41172,6.14168 -14.76222,7.82753 -3.6469,1.4132 -5.53239,2.9499 -7.27216,5.92691 -2.05206,3.51136 -3.02709,7.20725 -2.894,10.96972 0.0945,2.67059 0.30321,3.29897 1.56269,4.70425 0.92483,1.03188 1.03733,1.57433 0.71605,3.45254 -0.61757,3.61035 0.10393,6.15591 2.49269,8.79459 0.67605,0.74678 1.84072,2.10456 2.58816,3.01729 1.34869,1.64694 3.99142,4.06598 6.83056,6.2524 l 1.47847,1.13857 -0.10433,1.29972 c -0.0626,0.78048 -0.31481,1.72088 -0.6312,2.35393 -0.28977,0.57982 -0.83744,2.00671 -1.21703,3.17088 -0.78515,2.40798 -1.12318,3.12232 -2.60249,5.49977 -2.63837,4.24019 -4.08465,5.13016 -6.03779,3.71532 z M 92.80084,153.01868 c 5.21732,-0.81767 10.71869,-2.50223 15.08595,-4.61943 3.09792,-1.50183 3.59324,-1.87876 3.97031,-3.02128 0.50393,-1.52693 -0.25152,-4.33972 -1.36074,-5.06651 -0.53774,-0.35234 -0.59896,-0.33409 -3.46493,1.03302 -12.73891,6.07665 -27.822972,6.42941 -37.298926,0.87228 -2.425009,-1.42214 -6.02358,-4.99958 -7.57698,-7.5325 -2.957927,-4.82308 -4.271607,-10.4208 -3.993257,-17.01566 0.226452,-5.36529 1.264677,-9.48071 3.657165,-14.49664 4.050874,-8.492813 11.242551,-14.864853 20.302884,-17.988993 4.215482,-1.45356 6.159562,-1.77418 10.784354,-1.77858 4.21088,-0.004 6.12711,0.23997 9.15408,1.16549 7.61111,2.32719 12.75752,7.47728 14.63507,14.645539 0.63821,2.436644 0.94257,5.799694 0.79843,8.822344 -0.23165,4.85755 -1.15476,8.63793 -3.0493,12.48764 -1.02418,2.08113 -1.44571,2.68498 -2.91128,4.17048 -1.34113,1.35937 -2.06623,1.90442 -3.33518,2.50704 -2.09804,0.99635 -3.81131,1.19599 -4.63843,0.54047 -1.53362,-1.21542 -1.16895,-4.57414 1.53336,-14.12273 1.78861,-6.32 2.47075,-8.948 3.45453,-13.30875 0.42021,-1.862661 0.82137,-3.596659 0.89147,-3.853309 0.1775,-0.649984 -0.16833,-0.704824 -4.781,-0.758144 l -3.91159,-0.0452 -0.4822,1.375841 c -0.91156,2.600845 -0.83103,2.523055 -1.50836,1.457021 -1.67229,-2.631962 -4.6621,-3.997022 -8.75444,-3.997022 -6.58728,0 -12.160513,2.907638 -16.402651,8.557533 -2.732325,3.63904 -4.510362,7.52244 -5.485035,11.97983 -0.590377,2.69991 -0.538209,8.7676 0.09549,11.10681 0.73246,2.70377 1.982569,5.01398 3.605362,6.66273 2.307986,2.3449 4.616437,3.24955 8.285842,3.2471 4.850121,-0.003 9.846342,-2.39691 12.575642,-6.02494 l 1.05829,-1.40679 0.45705,1.44154 c 0.81791,2.57973 2.09228,4.03041 4.30722,4.90312 1.73221,0.6825 5.93732,0.67896 8.48346,-0.007 9.63907,-2.59747 16.65212,-11.48494 18.31884,-23.21505 1.48543,-10.45419 -1.70478,-20.664833 -8.54016,-27.333803 -7.99865,-7.80392 -20.40969,-10.68498 -32.656067,-7.58068 -8.0914,2.05106 -16.149728,6.70392 -22.263143,12.85468 -6.029552,6.06639 -9.373485,12.720233 -10.983006,21.854253 -0.541032,3.07035 -0.754965,10.20479 -0.404423,13.48713 0.852011,7.97792 3.803549,14.24072 9.070899,19.24734 5.482325,5.21096 12.605527,8.20918 21.739565,9.1504 1.897242,0.1955 9.405145,-0.0625 11.535835,-0.39645 z M 81.652776,127.95544 c -3.552298,-0.91178 -5.600882,-5.16149 -4.968534,-10.30702 0.765721,-6.2308 4.362672,-11.9821 8.894594,-14.2219 1.412215,-0.69796 1.767563,-0.78176 3.632414,-0.85666 3.46474,-0.13917 5.2667,0.81229 6.57623,3.47234 0.87931,1.78612 1.02525,3.68875 0.5053,6.58768 -0.98,5.464 -3.37999,10.1879 -6.4924,12.77897 -1.968642,1.6389 -4.073071,2.57602 -5.962639,2.65523 -0.83292,0.0349 -1.816154,-0.014 -2.184965,-0.10864 z"
       id="path1" /></g></svg>
